 <svg version="1.0" xmlns="http://www.w3.org/2000/svg" width="700.000000pt" height="420.000000pt" viewBox="0 0 700.000000 420.000000" preserveAspectRatio="xMidYMid meet">
<metadata>
Created by potrace 1.12, written by Peter Selinger 2001-2015
</metadata>
<g transform="translate(0.000000,420.000000) scale(0.100000,-0.100000)" fill="#000000" stroke="none">
<path d="M3305 3753 c-133 -20 -195 -34 -238 -49 -20 -8 -48 -14 -62 -14 -13
0 -27 -4 -30 -10 -3 -5 -15 -10 -26 -10 -10 0 -27 -4 -37 -10 -9 -5 -35 -16
-57 -26 -68 -28 -87 -37 -174 -86 -46 -27 -86 -48 -88 -48 -10 0 -183 -140
-246 -199 -38 -36 -95 -98 -127 -138 -67 -83 -190 -266 -190 -282 0 -6 -11
-29 -25 -51 -14 -22 -25 -46 -25 -53 0 -7 -4 -17 -9 -22 -5 -6 -16 -35 -25
-65 -10 -30 -21 -64 -26 -75 -19 -46 -38 -113 -44 -150 -4 -22 -13 -78 -21
-125 -17 -99 -21 -445 -5 -455 6 -3 10 -22 10 -40 0 -47 40 -215 61 -257 5
-10 9 -27 9 -37 0 -11 4 -22 9 -25 5 -3 12 -18 16 -33 3 -15 15 -45 26 -67 10
-22 19 -43 19 -47 0 -6 15 -33 94 -170 135 -235 425 -496 683 -614 124 -58
134 -62 208 -84 219 -65 436 -90 635 -71 152 14 301 39 350 58 14 5 45 16 70
23 25 7 50 16 55 20 6 3 21 10 35 14 83 25 261 125 370 209 87 67 242 218 294
286 67 88 176 257 176 274 0 8 4 17 9 21 14 8 41 65 41 86 0 15 -108 85 -174
112 -10 4 -31 16 -46 27 -15 11 -33 20 -39 20 -5 0 -27 -35 -47 -77 -62 -129
-178 -291 -299 -419 -41 -43 -191 -161 -234 -185 -20 -11 -45 -25 -56 -32 -63
-40 -96 -57 -110 -57 -8 0 -23 -4 -33 -10 -51 -28 -92 -41 -187 -59 -22 -4
-50 -13 -62 -19 -34 -19 -476 -16 -528 3 -22 8 -57 14 -77 15 -20 0 -40 5 -43
10 -3 6 -16 10 -28 10 -24 1 -123 33 -134 44 -3 3 -13 6 -20 6 -50 0 -334 170
-418 251 -29 27 -33 28 -65 17 -19 -7 -55 -23 -79 -35 -24 -13 -49 -23 -54
-23 -7 0 -8 44 -4 126 6 122 6 127 -17 157 -42 55 -128 217 -156 292 -4 11
-13 34 -20 50 -37 89 -64 234 -80 445 -12 141 -13 123 37 450 3 19 9 40 13 45
4 6 15 37 25 70 10 33 22 64 27 70 4 5 8 15 8 23 0 21 98 217 141 281 81 122
204 256 319 348 63 51 120 93 126 93 6 0 29 12 50 27 54 36 166 93 185 93 8 0
19 4 25 9 12 11 138 56 197 70 26 6 66 15 90 21 148 34 518 37 610 5 55 -19
87 -19 87 0 0 9 -9 15 -24 15 -14 0 -28 5 -31 10 -3 6 -25 10 -48 10 -23 0
-69 7 -102 15 -77 18 -318 18 -440 -2z m-1015 -600 c0 -4 -9 -16 -19 -27 -44
-48 -155 -254 -197 -366 -81 -214 -107 -358 -108 -590 -1 -317 65 -552 231
-827 42 -70 43 -74 43 -157 0 -49 -4 -86 -10 -86 -13 0 -78 90 -133 186 -50
86 -93 185 -133 303 -156 463 -90 980 176 1390 88 136 150 207 150 174z m2609
-1683 c35 -18 65 -39 68 -46 7 -19 -84 -182 -160 -284 -207 -280 -495 -489
-804 -584 -211 -65 -254 -71 -513 -71 -206 1 -246 4 -326 23 -321 76 -550 196
-761 396 -40 38 -73 75 -73 82 0 19 59 54 91 54 15 0 32 -7 39 -15 7 -8 16
-15 21 -15 4 0 49 -29 100 -65 160 -114 371 -203 580 -246 86 -18 140 -22 314
-22 198 0 216 1 320 28 205 52 327 108 495 229 133 95 334 324 417 474 20 37
45 79 55 94 21 31 22 30 137 -32z"></path>
<path d="M3169 3624 c-11 -14 -10 -18 6 -30 22 -17 32 -17 40 -4 11 17 25 11
35 -15 8 -22 15 -25 60 -25 43 0 50 -3 50 -19 0 -38 42 -49 78 -21 41 33 92
42 121 23 14 -9 39 -19 55 -24 153 -38 239 -72 276 -109 26 -26 25 -42 -5 -78
-24 -28 -24 -42 -1 -42 7 0 26 13 44 29 60 55 31 115 -79 165 -35 16 -72 32
-81 37 -10 5 -35 9 -56 9 -21 0 -42 4 -48 9 -5 5 -24 11 -43 13 -19 2 -37 9
-39 17 -4 11 7 12 54 7 117 -12 213 -32 269 -55 75 -32 95 -44 133 -76 34 -29
42 -43 42 -70 0 -18 -6 -37 -12 -42 -19 -15 -150 -63 -171 -63 -10 0 -28 -6
-40 -14 -12 -8 -38 -17 -57 -21 -19 -4 -87 -19 -150 -34 -63 -16 -149 -36
-190 -46 -41 -9 -109 -28 -150 -40 -41 -13 -127 -38 -190 -56 -63 -17 -173
-52 -245 -75 -71 -24 -131 -44 -132 -44 -8 0 -1 43 13 76 55 138 124 235 238
339 51 48 67 68 59 76 -23 23 -209 -155 -270 -259 -39 -65 -83 -172 -83 -199
0 -19 -5 -23 -30 -23 -19 0 -33 6 -37 16 -7 18 21 105 46 144 35 56 41 66 50
85 5 11 53 63 108 115 102 98 186 152 222 143 12 -3 28 0 36 7 20 16 95 30 95
18 0 -6 22 -7 53 -3 42 5 56 3 66 -9 13 -15 77 -33 87 -24 11 12 -10 38 -31
38 -12 0 -34 9 -48 20 -28 22 -67 26 -84 9 -7 -7 -19 -9 -29 -5 -13 5 -15 9
-6 18 21 21 13 34 -23 35 -23 1 -38 -5 -44 -15 -9 -17 -41 -35 -121 -68 -71
-29 -154 -86 -233 -160 -73 -69 -147 -154 -147 -169 0 -5 -10 -22 -23 -39 -22
-29 -67 -118 -67 -132 0 -3 -7 -21 -16 -39 -8 -18 -14 -50 -12 -71 3 -35 6
-39 28 -36 24 3 87 25 122 43 10 5 28 9 40 9 13 0 32 7 42 15 11 8 30 15 42
15 13 0 26 5 29 10 3 6 19 10 35 10 16 0 32 5 35 10 3 6 14 10 23 10 9 0 30 7
46 15 15 8 35 15 44 15 8 0 47 11 86 24 39 13 96 29 126 36 30 7 62 16 70 20
9 4 31 11 50 15 19 4 40 11 45 15 6 4 26 10 45 13 84 14 140 26 159 36 11 6
33 11 50 11 16 0 33 5 36 10 3 6 20 10 36 10 16 0 46 7 66 15 19 8 47 15 62
15 15 0 31 4 36 9 6 5 30 11 55 14 72 7 173 27 192 38 10 5 37 9 61 9 24 0 47
4 52 9 6 5 28 11 50 13 27 2 41 8 43 19 3 17 -109 135 -143 150 -11 5 -42 22
-70 37 -64 35 -175 70 -305 95 -75 14 -409 12 -424 -3 -6 -6 -24 -10 -42 -10
-24 0 -38 8 -58 35 -21 28 -34 35 -60 35 -19 0 -40 -7 -47 -16z m1040 -258
l33 -34 -42 -22 c-47 -24 -97 -24 -91 0 11 40 12 80 2 98 -6 10 -8 22 -5 25 9
8 66 -29 103 -67z m-1597 -433 c26 -23 22 -40 -12 -51 -31 -11 -43 -4 -35 22
3 9 7 23 10 31 6 19 14 19 37 -2z"></path>
<path d="M3398 3477 c7 -8 9 -17 5 -20 -3 -4 -1 -7 5 -7 18 0 14 27 -4 34 -13
5 -14 4 -6 -7z"></path>
<path d="M4663 3190 c-103 -30 -159 -82 -198 -180 -48 -123 -23 -222 69 -269
81 -41 160 -39 262 5 39 17 124 107 124 132 0 10 7 27 15 38 22 29 19 119 -6
172 -22 45 -89 102 -120 102 -10 0 -21 5 -24 10 -9 14 -51 11 -122 -10z m182
-55 c47 -35 65 -73 65 -136 0 -77 -18 -124 -67 -173 -106 -108 -284 -112 -345
-8 -21 35 -24 116 -6 176 17 56 109 149 163 164 65 18 150 8 190 -23z"></path>
<path d="M4634 3091 c-87 -53 -111 -146 -62 -239 28 -54 129 -70 188 -29 53
36 73 70 78 135 5 70 -14 114 -58 137 -40 21 -108 19 -146 -4z m120 -16 c45
-19 59 -52 54 -122 -5 -59 -23 -85 -80 -114 -52 -27 -73 -24 -114 14 -32 29
-36 39 -37 83 -1 41 5 58 27 87 29 38 68 64 97 66 9 1 33 -6 53 -14z"></path>
<path d="M4305 3133 c-16 -2 -39 -8 -50 -13 -11 -5 -45 -11 -75 -14 -30 -2
-75 -8 -100 -13 l-45 -8 0 -45 0 -45 59 0 60 0 -3 -110 c-1 -60 -7 -138 -13
-173 -12 -72 -4 -91 30 -73 11 6 32 11 45 11 38 0 57 38 58 117 0 37 6 111 12
163 l13 95 43 7 c57 10 83 33 79 72 -3 29 -6 31 -43 32 -22 1 -53 0 -70 -3z
m73 -40 c-2 -11 -21 -22 -51 -31 -26 -7 -51 -22 -57 -33 -6 -11 -16 -86 -22
-167 -11 -151 -23 -186 -57 -180 -14 3 -16 24 -12 159 4 176 2 181 -72 183
-29 1 -42 5 -42 15 0 17 35 28 130 42 39 6 93 14 120 18 28 5 54 9 58 10 5 0
7 -7 5 -16z"></path>
<path d="M3757 3023 c-16 -3 -31 -12 -34 -21 -3 -9 -16 -39 -29 -67 -13 -27
-42 -90 -65 -140 -22 -49 -54 -117 -70 -149 -34 -68 -35 -83 -11 -114 17 -22
19 -22 53 -8 42 17 58 34 68 73 6 23 15 29 49 35 22 4 50 12 61 17 34 18 50
12 65 -24 12 -29 20 -35 44 -35 34 0 78 37 87 73 7 26 3 35 -96 245 -60 128
-57 125 -122 115z m99 -143 c29 -58 60 -128 70 -157 17 -50 17 -53 -1 -73 -24
-26 -37 -25 -65 5 -27 28 -67 32 -134 13 -51 -14 -63 -23 -92 -70 -25 -38 -50
-49 -60 -25 -5 14 7 45 66 172 18 39 48 104 67 145 35 77 56 103 83 98 8 -2
38 -50 66 -108z"></path>
<path d="M3742 2833 c-25 -10 -34 -42 -20 -74 23 -51 79 -47 92 7 12 48 -27
85 -72 67z m43 -48 c0 -25 -4 -30 -25 -30 -25 0 -28 13 -15 53 9 26 40 8 40
-23z"></path>
<path d="M3465 2950 c-43 -18 -123 -98 -148 -147 -32 -61 -43 -62 -100 -5 -57
57 -79 63 -139 37 l-35 -14 -7 -168 c-4 -92 -9 -192 -12 -221 -7 -62 1 -91 18
-74 7 7 19 12 28 12 9 0 32 11 51 25 l34 26 5 106 c3 68 9 108 17 110 6 2 27
-10 46 -26 19 -17 37 -31 40 -31 2 0 22 25 43 55 38 56 72 71 66 30 -12 -85
-13 -183 -3 -190 21 -13 82 5 107 32 23 25 24 31 24 179 0 91 4 155 10 159 12
7 14 112 3 118 -5 3 -26 -3 -48 -13z m7 -216 c-3 -142 -6 -173 -21 -194 -10
-14 -27 -25 -37 -25 -17 0 -19 7 -15 78 3 64 0 82 -14 98 -26 28 -46 24 -85
-16 -34 -35 -63 -44 -75 -25 -3 6 -19 10 -35 10 -45 0 -60 -31 -60 -125 0 -74
-2 -84 -24 -105 -30 -28 -59 -21 -51 12 3 13 9 93 13 179 5 106 12 162 21 173
23 27 63 19 115 -24 70 -58 91 -53 152 32 42 59 94 109 109 104 6 -2 9 -65 7
-172z"></path>
<path d="M2765 2740 c-3 -5 -15 -10 -26 -10 -26 0 -118 -68 -157 -116 -17 -21
-41 -58 -53 -83 -12 -25 -26 -54 -31 -63 -14 -30 -9 -146 7 -178 29 -55 101
-77 179 -55 89 26 137 55 201 119 81 82 105 138 105 245 0 65 -9 91 -43 129
-18 19 -30 22 -98 22 -43 0 -81 -4 -84 -10z m139 -30 c35 -13 56 -59 56 -125
0 -80 -35 -149 -114 -222 -51 -48 -76 -64 -135 -83 -127 -41 -191 -9 -191 95
0 80 31 152 98 225 87 97 204 142 286 110z"></path>
<path d="M2725 2642 c-55 -26 -121 -102 -129 -149 -12 -77 -8 -103 25 -135 29
-29 33 -30 91 -25 56 5 64 9 109 53 34 34 53 63 65 101 16 50 16 56 0 97 -9
25 -23 50 -31 56 -25 21 -87 22 -130 2z m126 -47 c23 -40 23 -73 0 -121 -56
-114 -183 -157 -225 -76 -12 24 -13 37 -3 75 33 128 179 206 228 122z"></path>
<path d="M4575 2612 c-55 -4 -173 -40 -215 -65 -47 -28 -99 -73 -127 -111 -35
-48 -83 -155 -83 -186 0 -16 -5 -41 -10 -56 -17 -45 5 -197 38 -257 27 -50 73
-95 120 -117 15 -7 36 -17 47 -23 26 -13 216 -11 263 4 69 21 147 64 182 100
48 50 60 103 60 269 0 159 -1 161 -73 140 -48 -13 -101 -25 -202 -43 l-69 -12
3 -54 c1 -30 7 -65 12 -78 8 -23 14 -25 62 -21 l52 3 3 -36 c3 -31 -2 -40 -25
-57 -63 -45 -164 -36 -200 17 -21 31 -42 104 -43 148 0 18 9 57 21 88 22 60
76 111 140 133 43 15 175 16 184 2 9 -14 48 -12 80 4 49 26 71 99 41 141 -34
48 -142 76 -261 67z m152 -38 c39 -6 93 -49 93 -74 0 -9 -9 -29 -20 -43 -21
-26 -21 -26 -133 -21 -111 5 -112 5 -177 -28 -111 -56 -163 -166 -139 -290 15
-76 43 -117 99 -146 35 -17 54 -21 85 -16 79 13 125 51 125 102 0 45 -24 72
-65 72 -17 0 -36 5 -43 12 -15 15 -16 74 -1 83 17 11 253 63 262 58 11 -7 8
-243 -4 -288 -30 -110 -211 -198 -376 -181 -107 11 -175 50 -223 128 -99 161
-36 439 126 554 107 76 235 102 391 78z"></path>
<path d="M2399 2585 c-19 -7 -52 -23 -72 -34 -21 -12 -44 -21 -51 -21 -7 0
-44 -16 -82 -35 -37 -19 -76 -35 -86 -35 -22 0 -38 -29 -38 -69 0 -42 15 -47
66 -20 64 32 69 23 56 -93 -21 -177 -23 -248 -7 -248 7 0 17 5 20 10 3 6 14
10 24 10 9 0 34 17 54 38 l37 38 0 146 c0 81 3 153 6 162 3 9 33 28 65 42 61
28 74 46 67 95 -4 28 -13 30 -59 14z m13 -50 c0 -5 -21 -21 -47 -35 -26 -14
-53 -37 -60 -50 -7 -15 -15 -84 -18 -169 -5 -130 -8 -146 -28 -167 -26 -28
-49 -31 -49 -6 0 9 5 68 10 130 13 146 5 167 -60 168 -25 0 -44 5 -44 10 1 5
46 28 100 52 55 24 117 51 139 62 42 20 56 21 57 5z"></path>
<path d="M4040 2475 c-14 -8 -37 -14 -51 -15 -27 0 -87 -40 -103 -68 -6 -9
-12 -82 -14 -162 -2 -80 -9 -149 -14 -155 -7 -7 -15 -2 -26 15 -24 35 -158
190 -193 223 -25 23 -38 27 -87 27 -32 0 -62 -3 -66 -7 -4 -5 -28 -12 -52 -18
l-45 -10 0 -405 c-1 -281 2 -405 10 -408 6 -2 25 4 42 12 18 9 37 16 44 16 40
0 106 55 125 105 12 32 11 345 -1 345 -15 0 -19 -37 -19 -170 0 -98 -4 -148
-15 -173 -16 -40 -74 -79 -120 -81 l-30 -1 0 365 0 365 30 14 c17 8 55 17 86
19 56 4 58 4 99 -39 24 -24 70 -75 102 -114 61 -72 95 -105 107 -105 3 0 15 7
25 15 18 13 21 32 26 160 6 134 8 146 30 170 25 27 92 50 116 41 13 -5 14 -59
12 -351 l-3 -345 -27 -26 c-20 -20 -36 -27 -68 -27 -49 0 -74 22 -185 158 -86
106 -121 140 -129 127 -5 -9 79 -115 219 -278 11 -13 32 -28 47 -33 38 -14
114 1 143 29 31 29 51 117 37 163 -9 28 -8 530 0 607 4 30 -17 36 -52 15z"></path>
<path d="M3241 2260 c-24 -11 -52 -20 -62 -20 -28 0 -76 -38 -102 -80 -21 -33
-22 -46 -25 -412 -3 -286 -1 -378 8 -378 12 0 67 22 102 41 10 5 23 9 30 9 22
0 88 52 88 70 0 10 6 23 14 29 12 10 14 76 12 383 0 238 -5 372 -11 374 -5 2
-30 -5 -54 -16z m30 -51 c7 -15 10 -119 7 -349 -3 -315 -4 -330 -24 -357 -25
-33 -152 -99 -166 -85 -6 6 -8 148 -6 353 3 339 3 345 26 381 17 27 37 42 75
57 66 25 74 25 88 0z"></path>
<path d="M2820 2108 c-17 -13 -46 -48 -62 -78 -16 -30 -44 -77 -61 -105 -49
-77 -97 -165 -97 -179 0 -26 32 17 112 150 120 201 148 225 218 189 25 -13 30
-22 30 -50 0 -35 -10 -53 -134 -255 -25 -41 -46 -84 -46 -97 0 -16 31 -56 95
-122 84 -89 95 -104 95 -136 0 -54 -44 -95 -103 -95 -43 0 -47 3 -148 105 -57
58 -107 105 -111 105 -18 0 -6 -22 35 -62 23 -24 60 -64 81 -90 57 -71 95 -91
162 -86 81 7 109 37 109 118 l0 60 -99 99 c-63 63 -97 104 -92 113 3 7 25 42
48 78 118 185 138 224 138 271 0 45 -2 48 -40 68 -52 27 -89 27 -130 -1z"></path>
<path d="M2520 1991 c-8 -5 -31 -16 -50 -24 -19 -9 -60 -27 -91 -40 l-55 -25
1 -403 c0 -222 4 -403 8 -402 4 2 20 9 36 18 16 8 51 22 78 31 76 26 110 50
118 87 8 40 8 165 0 235 -12 96 -25 54 -25 -80 0 -86 -5 -142 -13 -158 -17
-33 -142 -89 -159 -72 -18 18 -25 680 -8 711 6 13 33 32 58 43 26 10 57 24 69
30 42 21 52 6 55 -87 2 -48 7 -85 13 -85 13 0 24 141 12 158 -6 7 -5 17 3 27
26 31 -10 57 -50 36z"></path>
<path d="M4917 1712 c-20 -21 -27 -38 -27 -69 0 -36 5 -46 38 -73 42 -36 80
-35 119 2 18 17 23 32 23 74 0 47 -3 55 -29 73 -42 30 -91 27 -124 -7z m88
-32 c-4 -19 -3 -30 4 -30 6 0 11 5 11 10 0 6 5 10 10 10 21 0 9 -43 -19 -71
-35 -35 -38 -35 -68 -7 -45 42 -20 118 39 118 28 0 29 -2 23 -30z"></path>
<path d="M4958 1684 c-11 -10 -10 -72 1 -78 15 -9 35 22 23 37 -5 6 -11 20
-13 30 -2 11 -7 15 -11 11z"></path>
<path d="M4529 1706 c-15 -7 -44 -16 -65 -19 -49 -6 -211 -51 -220 -60 -4 -4
-20 -7 -35 -7 -16 0 -43 -6 -61 -14 -50 -21 -102 -36 -124 -36 -10 0 -50 -11
-89 -25 -38 -13 -79 -25 -91 -25 -11 0 -24 -4 -30 -8 -5 -4 -36 -16 -69 -26
-120 -37 -210 -67 -227 -77 -10 -5 -29 -9 -42 -9 -14 0 -28 -4 -31 -10 -3 -5
-14 -10 -23 -10 -9 0 -30 -7 -46 -15 -15 -8 -38 -15 -50 -15 -12 0 -26 -4 -31
-9 -6 -5 -35 -16 -65 -26 -30 -10 -59 -21 -65 -25 -5 -3 -32 -14 -60 -24 -27
-10 -59 -21 -70 -26 -11 -4 -49 -19 -85 -34 -36 -14 -71 -26 -78 -26 -7 0 -17
-12 -22 -26 -9 -24 -6 -30 27 -60 43 -37 58 -45 173 -92 119 -49 225 -65 425
-65 160 0 193 3 300 28 66 15 125 30 130 34 6 4 37 15 70 26 33 11 74 27 90
37 17 9 46 25 65 35 19 9 59 35 89 57 29 23 61 46 70 51 35 22 126 113 165
165 73 98 83 115 124 210 8 19 19 43 23 52 13 25 11 62 -3 76 -16 16 -37 15
-69 -2z m18 -62 c7 -18 -22 -84 -37 -84 -5 0 -10 4 -10 9 0 5 -12 23 -26 40
-27 33 -25 36 26 44 14 2 29 5 33 6 4 0 10 -6 14 -15z m-217 -51 c-1 -79 -131
-268 -268 -390 -48 -42 -88 -80 -90 -85 -7 -16 23 -7 58 18 19 13 51 35 70 48
75 50 177 180 232 296 20 41 39 82 41 91 9 28 57 33 81 10 19 -20 19 -22 3
-56 -49 -104 -176 -260 -259 -320 -161 -117 -245 -155 -441 -200 -283 -65
-678 -16 -815 101 l-36 31 30 16 c32 16 458 177 470 177 3 0 20 6 37 14 18 8
95 33 172 56 77 23 151 46 163 51 30 12 395 119 442 129 19 5 49 13 65 18 42
14 45 14 45 -5z"></path>
</g>
</svg>